<?xml version="1.0" encoding="utf-8"?>
<!-- Generator: Adobe Illustrator 16.0.4, SVG Export Plug-In . SVG Version: 6.00 Build 0)  -->
<!DOCTYPE svg PUBLIC "-//W3C//DTD SVG 1.1//EN" "http://www.w3.org/Graphics/SVG/1.1/DTD/svg11.dtd">
<svg version="1.1" id="Layer_2" xmlns="http://www.w3.org/2000/svg" xmlns:xlink="http://www.w3.org/1999/xlink" x="0px" y="0px"
	 width="547.917px" height="212.5px" viewBox="0 0 547.917 212.5" enable-background="new 0 0 547.917 212.5" xml:space="preserve">
<g>
	<g>
		<path fill="#FFFFFF" d="M19.93,132.059v0.684c-1.41,0.094-2.322,0.33-2.741,0.705c-0.418,0.377-0.628,1.24-0.628,2.59v11.732
			c0,1.92,0.264,3.422,0.789,4.496c0.979,1.959,2.836,2.938,5.57,2.938c2.999,0,5.011-1.004,6.036-3.01
			c0.573-1.121,0.86-2.854,0.86-5.193v-9.547c0-1.996-0.238-3.246-0.715-3.754c-0.479-0.506-1.387-0.826-2.723-0.957v-0.684h8.49
			v0.684c-1.421,0.154-2.349,0.496-2.785,1.029c-0.438,0.531-0.655,1.756-0.655,3.682V147c0,2.531-0.386,4.506-1.164,5.928
			c-1.434,2.617-4.156,3.924-8.168,3.924c-3.966,0-6.665-1.291-8.097-3.869c-0.777-1.385-1.166-3.213-1.166-5.48v-11.465
			c0-1.338-0.204-2.193-0.616-2.572c-0.413-0.377-1.312-0.617-2.695-0.723v-0.684H19.93"/>
		<path fill="#FFFFFF" d="M35.826,155.817c1.146-0.117,1.883-0.377,2.208-0.777c0.325-0.402,0.488-1.334,0.488-2.799v-12.23
			l-0.379-0.445c-0.406-0.48-0.754-0.775-1.037-0.891c-0.285-0.111-0.712-0.178-1.28-0.195v-0.514h4.734l10.719,13.281v-9.227
			c0-1.516-0.227-2.502-0.679-2.961c-0.299-0.297-0.957-0.488-1.979-0.58v-0.514h6.52v0.514c-1.056,0.109-1.763,0.367-2.115,0.773
			c-0.352,0.406-0.527,1.338-0.527,2.793v14.613h-0.474l-12.284-15.225v10.809c0,1.516,0.223,2.506,0.665,2.965
			c0.289,0.299,0.936,0.502,1.939,0.609v0.516h-6.52V155.817"/>
		<path fill="#FFFFFF" d="M56.009,155.817c1.13-0.08,1.861-0.25,2.197-0.504c0.333-0.256,0.501-0.92,0.501-1.99v-12.35
			c0-1.021-0.168-1.68-0.501-1.973c-0.336-0.293-1.067-0.467-2.197-0.521v-0.514h8.216v0.514c-1.13,0.055-1.862,0.229-2.195,0.521
			c-0.335,0.293-0.502,0.951-0.502,1.973v12.35c0,1.07,0.167,1.734,0.502,1.99c0.333,0.254,1.065,0.424,2.195,0.504v0.516h-8.216
			V155.817"/>
		<path fill="#FFFFFF" d="M72.643,137.965v0.477c-0.694,0.006-1.169,0.051-1.421,0.135c-0.441,0.146-0.664,0.445-0.664,0.896
			c0,0.227,0.08,0.549,0.238,0.963c0.159,0.414,0.452,1.1,0.882,2.057l4.348,9.664l3.944-10.463
			c0.174-0.463,0.305-0.852,0.396-1.178c0.091-0.32,0.137-0.58,0.137-0.783c0-0.541-0.232-0.908-0.692-1.102
			c-0.269-0.109-0.716-0.176-1.338-0.189v-0.477h5.677v0.477c-0.587,0.08-1.021,0.234-1.3,0.471
			c-0.425,0.354-0.846,1.064-1.262,2.129l-6.148,15.617h-0.418l-6.861-15.26c-0.579-1.297-1.041-2.102-1.388-2.416
			c-0.35-0.316-0.856-0.498-1.524-0.541v-0.477H72.643"/>
		<path fill="#FFFFFF" d="M85.167,155.817c1.023-0.107,1.684-0.289,1.987-0.545c0.303-0.256,0.454-0.906,0.454-1.949v-12.35
			c0-0.984-0.149-1.625-0.448-1.932c-0.298-0.303-0.962-0.488-1.993-0.562v-0.514h14.75l0.095,3.969h-0.706
			c-0.234-1.221-0.587-2.014-1.056-2.371c-0.471-0.363-1.518-0.541-3.146-0.541h-3.777c-0.41,0-0.66,0.066-0.755,0.197
			c-0.096,0.133-0.144,0.375-0.144,0.736v6.197h4.284c1.184,0,1.939-0.176,2.265-0.527c0.325-0.35,0.587-1.061,0.785-2.131h0.649
			v6.412h-0.649c-0.208-1.074-0.475-1.789-0.8-2.135c-0.324-0.348-1.077-0.521-2.25-0.521h-4.284v6.873
			c0,0.551,0.175,0.877,0.523,0.977c0.347,0.098,1.391,0.148,3.13,0.148c1.882,0,3.27-0.205,4.166-0.615
			c0.896-0.414,1.702-1.408,2.415-2.99h0.774l-1.262,4.689H85.167V155.817"/>
		<path fill="#FFFFFF" d="M102.126,155.817c1.066-0.098,1.73-0.305,1.993-0.619c0.262-0.316,0.393-1.049,0.393-2.201v-12.023
			c0-0.975-0.146-1.615-0.441-1.916c-0.293-0.305-0.94-0.496-1.944-0.578v-0.514h7.686c1.601,0,2.933,0.203,4,0.609
			c2.024,0.766,3.036,2.178,3.036,4.234c0,1.383-0.448,2.443-1.349,3.182c-0.9,0.74-2.121,1.229-3.667,1.463l5.722,7.045
			c0.351,0.432,0.704,0.746,1.057,0.943c0.352,0.193,0.806,0.322,1.354,0.375v0.516h-4.472l-6.942-8.553l-1.22,0.066v5.471
			c0,1.029,0.157,1.68,0.469,1.953c0.311,0.275,0.991,0.459,2.04,0.547v0.516h-7.714V155.817 M111.614,146.194
			c1.474-0.605,2.212-1.742,2.212-3.41c0-1.604-0.66-2.703-1.979-3.289c-0.705-0.314-1.642-0.473-2.806-0.473
			c-0.787,0-1.27,0.057-1.443,0.17c-0.177,0.113-0.267,0.377-0.267,0.791v6.834C109.33,146.745,110.756,146.536,111.614,146.194z"/>
		<path fill="#FFFFFF" d="M122.12,150.749c0.471,1.246,1.02,2.24,1.652,2.982c1.101,1.291,2.467,1.938,4.102,1.938
			c0.884,0,1.649-0.281,2.294-0.84c0.646-0.561,0.968-1.342,0.968-2.346c0-0.904-0.323-1.691-0.974-2.359
			c-0.424-0.424-1.317-1.061-2.68-1.91l-2.367-1.479c-0.712-0.453-1.281-0.908-1.705-1.369c-0.787-0.875-1.181-1.844-1.181-2.9
			c0-1.402,0.466-2.568,1.396-3.498c0.93-0.93,2.163-1.396,3.7-1.396c0.633,0,1.394,0.158,2.285,0.467
			c0.89,0.312,1.397,0.469,1.524,0.469c0.343,0,0.581-0.08,0.712-0.244c0.131-0.162,0.231-0.391,0.305-0.691h0.569l0.611,5.912
			h-0.664c-0.452-1.781-1.179-3.023-2.178-3.729c-0.997-0.705-1.985-1.059-2.961-1.059c-0.759,0-1.422,0.223-1.987,0.67
			c-0.562,0.447-0.846,1.07-0.846,1.865c0,0.715,0.216,1.322,0.649,1.83c0.433,0.516,1.104,1.053,2.017,1.613l2.438,1.506
			c1.527,0.938,2.602,1.803,3.229,2.588c0.616,0.797,0.926,1.736,0.926,2.82c0,1.455-0.549,2.67-1.647,3.646
			c-1.097,0.977-2.501,1.465-4.208,1.465c-0.859,0-1.755-0.164-2.691-0.488c-0.936-0.328-1.472-0.49-1.605-0.49
			c-0.326,0-0.544,0.1-0.659,0.299c-0.113,0.199-0.186,0.412-0.222,0.639h-0.61l-0.827-5.91H122.12"/>
		<path fill="#FFFFFF" d="M136.221,155.817c1.128-0.08,1.861-0.25,2.194-0.504c0.335-0.256,0.502-0.92,0.502-1.99v-12.35
			c0-1.021-0.167-1.68-0.502-1.973c-0.333-0.293-1.066-0.467-2.194-0.521v-0.514h8.213v0.514c-1.13,0.055-1.862,0.229-2.195,0.521
			c-0.335,0.293-0.502,0.951-0.502,1.973v12.35c0,1.07,0.167,1.734,0.502,1.99c0.333,0.254,1.065,0.424,2.195,0.504v0.516h-8.213
			V155.817"/>
		<path fill="#FFFFFF" d="M145.561,137.965h15.697l0.148,4.717h-0.664c-0.325-1.484-0.74-2.447-1.241-2.893
			c-0.502-0.449-1.558-0.674-3.165-0.674h-1.545v14.207c0,1.07,0.166,1.734,0.501,1.99c0.334,0.254,1.065,0.424,2.195,0.504v0.516
			h-8.092v-0.516c1.176-0.088,1.907-0.281,2.197-0.58c0.289-0.297,0.432-1.043,0.432-2.24v-13.881h-1.559
			c-1.537,0-2.582,0.223-3.137,0.666c-0.558,0.443-0.976,1.408-1.256,2.9h-0.676L145.561,137.965"/>
		<path fill="#FFFFFF" d="M170.354,137.965v0.514c-0.652-0.02-1.141,0.031-1.466,0.148c-0.324,0.117-0.486,0.371-0.486,0.76
			c0,0.117,0.026,0.264,0.081,0.439c0.055,0.178,0.176,0.41,0.366,0.697l4.085,5.994l3.988-6.086c0.16-0.264,0.267-0.48,0.317-0.65
			c0.05-0.172,0.072-0.299,0.072-0.381c0-0.398-0.212-0.66-0.634-0.785c-0.254-0.082-0.688-0.127-1.304-0.137v-0.514h6.066v0.514
			c-0.559,0.027-1.058,0.193-1.501,0.502c-0.687,0.479-1.457,1.369-2.313,2.67l-4.101,6.264v5.398c0,1.076,0.174,1.746,0.521,2.012
			c0.35,0.264,1.129,0.43,2.341,0.492v0.516h-8.474v-0.516c1.255-0.07,2.034-0.26,2.337-0.561c0.305-0.303,0.454-1.059,0.454-2.266
			v-4.818l-3.633-5.328c-1.255-1.836-2.135-3.012-2.644-3.529c-0.505-0.521-1.12-0.801-1.842-0.836v-0.514H170.354"/>
		<path fill="#FFFFFF" d="M194.816,140.026c1.707-1.635,3.808-2.455,6.303-2.455c2.502,0,4.607,0.824,6.316,2.467
			c1.853,1.781,2.779,4.154,2.779,7.117c0,3.01-0.958,5.406-2.874,7.186c-1.717,1.59-3.792,2.385-6.222,2.385
			c-2.602,0-4.765-0.881-6.479-2.643c-1.746-1.799-2.619-4.107-2.619-6.928C192.021,144.192,192.954,141.815,194.816,140.026
			 M196.891,153.629c1.15,1.395,2.56,2.092,4.236,2.092c1.635,0,3.035-0.678,4.199-2.037c1.163-1.361,1.744-3.537,1.744-6.529
			c0-3.027-0.588-5.213-1.764-6.561c-1.179-1.348-2.569-2.02-4.18-2.02c-1.667,0-3.076,0.699-4.229,2.094
			c-1.154,1.396-1.731,3.559-1.731,6.486C195.167,150.075,195.742,152.231,196.891,153.629z"/>
		<path fill="#FFFFFF" d="M211.557,155.817c1.094-0.115,1.773-0.316,2.041-0.6c0.266-0.283,0.398-1.023,0.398-2.221v-12.023
			c0-0.984-0.148-1.625-0.446-1.932c-0.3-0.303-0.964-0.488-1.993-0.562v-0.514h14.79l0.096,3.969h-0.773
			c-0.191-1.266-0.548-2.068-1.071-2.404c-0.523-0.338-1.559-0.508-3.104-0.508h-3.807c-0.371,0-0.609,0.062-0.715,0.189
			c-0.103,0.127-0.157,0.373-0.157,0.744v6.197h4.028c1.184,0,1.938-0.176,2.263-0.527c0.325-0.35,0.589-1.061,0.787-2.131h0.65
			v6.412h-0.65c-0.208-1.074-0.477-1.789-0.802-2.135c-0.324-0.348-1.074-0.521-2.248-0.521h-4.028v6.072
			c0,1.018,0.157,1.666,0.469,1.949c0.311,0.283,0.991,0.465,2.04,0.545v0.516h-7.768V155.817"/>
		<path fill="#FFFFFF" d="M236.27,155.651c1.515-0.154,2.489-0.498,2.919-1.027c0.43-0.531,0.645-1.764,0.645-3.697v-14.893
			c0-1.324-0.208-2.186-0.627-2.586c-0.418-0.4-1.368-0.635-2.847-0.705v-0.684h7.231l8.427,18.273l8.22-18.273h7.291v0.684
			c-1.361,0.094-2.239,0.342-2.636,0.74c-0.392,0.398-0.589,1.252-0.589,2.551v16.309c0,1.336,0.197,2.191,0.589,2.566
			c0.396,0.377,1.274,0.625,2.636,0.742v0.682h-10.264v-0.682c1.479-0.117,2.401-0.383,2.766-0.795s0.548-1.393,0.548-2.945v-16.467
			l-9.396,20.889h-0.502l-9.234-20.029v14.623c0,2.006,0.294,3.309,0.879,3.922c0.38,0.393,1.235,0.662,2.562,0.803v0.682h-8.616
			V155.651"/>
		<path fill="#FFFFFF" d="M268.924,155.817c1.131-0.08,1.863-0.25,2.196-0.504c0.333-0.256,0.499-0.92,0.499-1.99v-12.35
			c0-1.021-0.166-1.68-0.499-1.973s-1.065-0.467-2.196-0.521v-0.514h8.216v0.514c-1.129,0.055-1.861,0.229-2.197,0.521
			c-0.332,0.293-0.5,0.951-0.5,1.973v12.35c0,1.07,0.168,1.734,0.5,1.99c0.336,0.254,1.068,0.424,2.197,0.504v0.516h-8.216V155.817"
			/>
		<path fill="#FFFFFF" d="M278.034,155.817c1.146-0.117,1.885-0.377,2.209-0.777c0.326-0.402,0.488-1.334,0.488-2.799v-12.23
			l-0.379-0.445c-0.406-0.48-0.754-0.775-1.037-0.891c-0.285-0.111-0.713-0.178-1.281-0.195v-0.514h4.736l10.717,13.281v-9.227
			c0-1.516-0.225-2.502-0.678-2.961c-0.299-0.297-0.957-0.488-1.979-0.58v-0.514h6.52v0.514c-1.057,0.109-1.762,0.367-2.113,0.773
			c-0.354,0.406-0.529,1.338-0.529,2.793v14.613h-0.475l-12.281-15.225v10.809c0,1.516,0.221,2.506,0.664,2.965
			c0.289,0.299,0.936,0.502,1.938,0.609v0.516h-6.52V155.817"/>
		<path fill="#FFFFFF" d="M298.083,155.817c1.148-0.117,1.885-0.377,2.209-0.777c0.326-0.402,0.488-1.334,0.488-2.799v-12.23
			l-0.379-0.445c-0.406-0.48-0.752-0.775-1.039-0.891c-0.281-0.111-0.709-0.178-1.279-0.195v-0.514h4.736l10.717,13.281v-9.227
			c0-1.516-0.227-2.502-0.678-2.961c-0.297-0.297-0.957-0.488-1.979-0.58v-0.514h6.52v0.514c-1.057,0.109-1.762,0.367-2.113,0.773
			c-0.354,0.406-0.529,1.338-0.529,2.793v14.613h-0.475l-12.281-15.225v10.809c0,1.516,0.221,2.506,0.664,2.965
			c0.289,0.299,0.936,0.502,1.938,0.609v0.516h-6.52V155.817"/>
		<path fill="#FFFFFF" d="M318.132,155.817c1.023-0.107,1.684-0.289,1.988-0.545c0.301-0.256,0.451-0.906,0.451-1.949v-12.35
			c0-0.984-0.148-1.625-0.447-1.932c-0.297-0.303-0.961-0.488-1.992-0.562v-0.514h14.75l0.096,3.969h-0.705
			c-0.236-1.221-0.588-2.014-1.057-2.371c-0.473-0.363-1.52-0.541-3.146-0.541h-3.779c-0.41,0-0.66,0.066-0.754,0.197
			c-0.098,0.133-0.145,0.375-0.145,0.736v6.197h4.283c1.186,0,1.939-0.176,2.264-0.527c0.328-0.35,0.588-1.061,0.789-2.131h0.65
			v6.412h-0.65c-0.209-1.074-0.477-1.789-0.801-2.135c-0.326-0.348-1.078-0.521-2.252-0.521h-4.283v6.873
			c0,0.551,0.174,0.877,0.523,0.977c0.348,0.098,1.391,0.148,3.129,0.148c1.883,0,3.273-0.205,4.168-0.615
			c0.898-0.414,1.699-1.408,2.416-2.99h0.771l-1.26,4.689h-15.008V155.817"/>
		<path fill="#FFFFFF" d="M336.567,150.749c0.469,1.246,1.02,2.24,1.65,2.982c1.1,1.291,2.467,1.938,4.102,1.938
			c0.883,0,1.65-0.281,2.293-0.84c0.646-0.561,0.969-1.342,0.969-2.346c0-0.904-0.326-1.691-0.973-2.359
			c-0.426-0.424-1.316-1.061-2.68-1.91l-2.367-1.479c-0.713-0.453-1.281-0.908-1.707-1.369c-0.787-0.875-1.178-1.844-1.178-2.9
			c0-1.402,0.465-2.568,1.395-3.498c0.934-0.93,2.164-1.396,3.703-1.396c0.631,0,1.393,0.158,2.285,0.467
			c0.887,0.312,1.396,0.469,1.521,0.469c0.344,0,0.58-0.08,0.713-0.244c0.131-0.162,0.232-0.391,0.305-0.691h0.57l0.607,5.912
			h-0.662c-0.453-1.781-1.178-3.023-2.176-3.729c-1-0.705-1.988-1.059-2.963-1.059c-0.76,0-1.422,0.223-1.984,0.67
			c-0.564,0.447-0.848,1.07-0.848,1.865c0,0.715,0.217,1.322,0.646,1.83c0.434,0.516,1.107,1.053,2.018,1.613l2.441,1.506
			c1.525,0.938,2.602,1.803,3.227,2.588c0.619,0.797,0.926,1.736,0.926,2.82c0,1.455-0.547,2.67-1.646,3.646
			c-1.096,0.977-2.502,1.465-4.211,1.465c-0.855,0-1.754-0.164-2.688-0.488c-0.938-0.328-1.473-0.49-1.607-0.49
			c-0.326,0-0.547,0.1-0.658,0.299c-0.113,0.199-0.186,0.412-0.225,0.639h-0.607l-0.83-5.91H336.567"/>
		<path fill="#FFFFFF" d="M353.839,140.026c1.707-1.635,3.811-2.455,6.305-2.455c2.502,0,4.609,0.824,6.316,2.467
			c1.852,1.781,2.777,4.154,2.777,7.117c0,3.01-0.957,5.406-2.873,7.186c-1.717,1.59-3.793,2.385-6.221,2.385
			c-2.604,0-4.764-0.881-6.48-2.643c-1.746-1.799-2.617-4.107-2.617-6.928C351.046,144.192,351.979,141.815,353.839,140.026
			 M355.915,153.629c1.15,1.395,2.559,2.092,4.236,2.092c1.635,0,3.037-0.678,4.199-2.037c1.162-1.361,1.742-3.537,1.742-6.529
			c0-3.027-0.588-5.213-1.762-6.561c-1.178-1.348-2.572-2.02-4.18-2.02c-1.666,0-3.074,0.699-4.229,2.094
			c-1.154,1.396-1.732,3.559-1.732,6.486C354.19,150.075,354.769,152.231,355.915,153.629z"/>
		<path fill="#FFFFFF" d="M370.81,137.965h15.699l0.146,4.717h-0.662c-0.326-1.484-0.74-2.447-1.24-2.893
			c-0.504-0.449-1.557-0.674-3.168-0.674h-1.545v14.207c0,1.07,0.166,1.734,0.504,1.99c0.332,0.254,1.064,0.424,2.195,0.504v0.516
			h-8.094v-0.516c1.176-0.088,1.908-0.281,2.195-0.58c0.293-0.297,0.434-1.043,0.434-2.24v-13.881h-1.557
			c-1.537,0-2.584,0.223-3.137,0.666c-0.559,0.443-0.977,1.408-1.256,2.9h-0.678L370.81,137.965"/>
		<path fill="#FFFFFF" d="M385.423,156.333v-0.516c0.717-0.08,1.252-0.348,1.607-0.805c0.357-0.457,0.969-1.707,1.836-3.752
			l5.783-13.621h0.553l6.918,15.738c0.461,1.043,0.828,1.689,1.104,1.936s0.74,0.416,1.391,0.504v0.516h-7.061v-0.516
			c0.814-0.07,1.336-0.158,1.568-0.262c0.236-0.104,0.354-0.357,0.354-0.762c0-0.137-0.043-0.375-0.137-0.717
			c-0.088-0.342-0.217-0.701-0.379-1.08l-1.111-2.67h-7.316c-0.721,1.816-1.15,2.926-1.289,3.326
			c-0.141,0.4-0.211,0.717-0.211,0.951c0,0.469,0.191,0.791,0.566,0.971c0.236,0.107,0.678,0.189,1.328,0.242v0.516H385.423
			 M397.38,149.202l-3.18-7.645l-3.195,7.645H397.38z"/>
		<path fill="#FFFFFF" d="M414.827,155.651c1.342-0.141,2.215-0.381,2.619-0.721c0.402-0.338,0.607-1.197,0.607-2.574v-16.318
			c0-1.338-0.197-2.197-0.592-2.58c-0.391-0.381-1.271-0.621-2.635-0.715v-0.684h9.889c3.334,0,6.15,0.551,8.455,1.648
			c4.156,1.973,6.236,5.492,6.236,10.57c0,1.826-0.377,3.562-1.119,5.211c-0.748,1.65-1.871,3.041-3.379,4.176
			c-0.955,0.717-1.947,1.258-2.975,1.631c-1.873,0.691-4.178,1.037-6.912,1.037h-10.195V155.651 M422.218,154.684
			c0.295,0.191,0.898,0.287,1.82,0.287c2.865,0,5.225-0.566,7.076-1.701c2.84-1.746,4.26-4.729,4.26-8.949
			c0-3.764-1.17-6.596-3.508-8.498c-2.006-1.625-4.662-2.436-7.971-2.436c-0.826,0-1.383,0.088-1.678,0.266
			c-0.291,0.184-0.438,0.578-0.438,1.186v18.664C421.78,154.098,421.927,154.493,422.218,154.684z"/>
		<path fill="#FFFFFF" d="M448.985,137.965v0.514c-1.066,0.074-1.76,0.252-2.072,0.535c-0.318,0.287-0.477,0.938-0.477,1.959v8.881
			c0,1.453,0.201,2.588,0.598,3.402c0.744,1.48,2.145,2.223,4.217,2.223c2.266,0,3.791-0.76,4.566-2.277
			c0.434-0.85,0.65-2.16,0.65-3.932v-7.225c0-1.51-0.178-2.457-0.543-2.842c-0.359-0.383-1.045-0.625-2.061-0.725v-0.514h6.426
			v0.514c-1.072,0.117-1.777,0.381-2.107,0.779c-0.328,0.402-0.494,1.332-0.494,2.787v7.225c0,1.916-0.295,3.412-0.881,4.486
			c-1.084,1.98-3.145,2.969-6.182,2.969c-3,0-5.041-0.975-6.127-2.928c-0.588-1.049-0.883-2.43-0.883-4.148v-8.676
			c0-1.01-0.154-1.658-0.465-1.943c-0.312-0.287-0.994-0.469-2.041-0.551v-0.514H448.985"/>
		<path fill="#FFFFFF" d="M461.093,155.817c1.018-0.107,1.68-0.289,1.982-0.545c0.307-0.256,0.457-0.906,0.457-1.949v-12.35
			c0-0.984-0.15-1.625-0.449-1.932c-0.299-0.303-0.961-0.488-1.99-0.562v-0.514h7.834v0.514c-1.021,0.055-1.707,0.221-2.057,0.502
			c-0.344,0.279-0.518,0.881-0.518,1.803v13.34c0,0.307,0.049,0.547,0.154,0.727c0.104,0.174,0.332,0.285,0.686,0.33
			c0.209,0.027,0.426,0.043,0.658,0.055c0.232,0.01,0.662,0.014,1.297,0.014c2.467,0,4.137-0.203,5.008-0.609
			c0.869-0.408,1.709-1.447,2.525-3.119h0.705l-1.359,4.812h-14.934V155.817"/>
		<path fill="#FFFFFF" d="M485.991,137.963v0.516c-1.064,0.074-1.758,0.252-2.07,0.535c-0.318,0.287-0.477,0.938-0.477,1.959v8.881
			c0,1.453,0.201,2.588,0.596,3.4c0.744,1.482,2.146,2.225,4.219,2.225c2.266,0,3.791-0.76,4.566-2.277
			c0.434-0.852,0.65-2.16,0.65-3.932v-7.225c0-1.51-0.18-2.457-0.543-2.842c-0.359-0.383-1.045-0.625-2.061-0.725v-0.516h6.426
			v0.516c-1.072,0.117-1.777,0.381-2.107,0.779c-0.328,0.402-0.496,1.332-0.496,2.787v7.225c0,1.916-0.293,3.412-0.879,4.486
			c-1.084,1.98-3.145,2.969-6.182,2.969c-3.002,0-5.043-0.975-6.127-2.928c-0.588-1.049-0.883-2.43-0.883-4.148v-8.676
			c0-1.01-0.154-1.658-0.465-1.943c-0.314-0.287-0.996-0.469-2.041-0.551v-0.514L485.991,137.963"/>
		<path fill="#FFFFFF" d="M498.327,137.963h15.699l0.15,4.719h-0.666c-0.326-1.484-0.74-2.447-1.24-2.895
			c-0.502-0.449-1.557-0.674-3.164-0.674h-1.545v14.209c0,1.068,0.166,1.734,0.5,1.988c0.336,0.256,1.068,0.426,2.195,0.506v0.516
			h-8.09v-0.516c1.172-0.088,1.904-0.283,2.195-0.58c0.287-0.297,0.434-1.043,0.434-2.24v-13.883h-1.561
			c-1.533,0-2.584,0.223-3.137,0.668c-0.559,0.443-0.973,1.408-1.256,2.9h-0.678L498.327,137.963"/>
		<path fill="#FFFFFF" d="M515.192,155.817c1.084-0.115,1.762-0.316,2.033-0.6c0.27-0.283,0.406-1.023,0.406-2.221v-12.023
			c0-0.992-0.152-1.641-0.453-1.939c-0.303-0.297-0.965-0.48-1.986-0.555v-0.516h7.699v0.516c-1.016,0.074-1.678,0.258-1.98,0.555
			c-0.305,0.299-0.461,0.947-0.461,1.939v5.41h8.434v-5.41c0-0.992-0.146-1.641-0.445-1.939c-0.299-0.297-0.965-0.48-1.996-0.555
			v-0.516h7.701v0.516c-1.02,0.074-1.682,0.258-1.982,0.555c-0.307,0.299-0.457,0.947-0.457,1.939v12.35
			c0,1.008,0.15,1.652,0.457,1.936c0.301,0.281,0.963,0.471,1.982,0.559v0.516h-7.701v-0.516c1.096-0.107,1.775-0.305,2.043-0.594
			c0.268-0.287,0.398-1.029,0.398-2.227v-5.395h-8.434v5.721c0,1.008,0.156,1.652,0.461,1.943c0.303,0.285,0.965,0.471,1.98,0.551
			v0.516h-7.699V155.817"/>
	</g>
	<g>
		<g>
			<path fill="#FFFFFF" d="M124.686,180.272h7.019c7.018,0,12.023,4.666,12.023,11.416c0,6.754-4.971,11.426-12.023,11.426h-7.019
				V180.272z M131.468,198.981c5.071,0,7.387-3.029,7.387-7.293c0-4.262-2.315-7.283-7.387-7.283h-2.08v14.576H131.468z"/>
			<path fill="#FFFFFF" d="M147.971,188.805h4.533l-0.064,2.584c1.036-2.348,2.718-2.887,4.196-2.887
				c0.941,0,1.646,0.268,2.214,0.57l-1.444,4.131c-0.568-0.273-1.106-0.438-1.745-0.438c-2.049,0-3.156,0.943-3.156,3.996v6.352
				h-4.533V188.805z"/>
			<path fill="#FFFFFF" d="M162.377,183.567c0-1.65,1.345-2.822,2.89-2.822s2.854,1.172,2.854,2.822c0,1.674-1.31,2.852-2.854,2.852
				S162.377,185.241,162.377,183.567z M162.979,188.805h4.536v14.309h-4.536V188.805z"/>
			<path fill="#FFFFFF" d="M171.444,188.805h5.005l2.016,4.266c0.672,1.443,1.175,3.793,1.175,3.793s0.473-2.35,1.107-3.793
				l1.949-4.266h4.601l-7.657,14.609h-0.434L171.444,188.805z"/>
			<path fill="#FFFFFF" d="M198.05,199.649c1.644,0,2.887-0.635,3.595-1.141l2.585,2.789c-1.378,1.207-3.122,2.117-6.112,2.117
				c-5.106,0-8.397-3.09-8.397-7.49c0-4.332,3.458-7.422,7.892-7.422c5.142,0,7.928,3.83,7.594,8.828h-10.849
				C194.794,198.813,196.001,199.649,198.05,199.649z M200.637,194.715c-0.202-1.578-1.213-2.518-2.99-2.518
				c-1.781,0-2.989,0.799-3.359,2.518H200.637z"/>
			<path fill="#FFFFFF" d="M209.972,188.805h4.532l-0.101,2.348c0.877-1.709,2.554-2.65,4.537-2.65c3.122,0,5.375,2.281,5.375,6.348
				v8.264h-4.535v-7.963c0-1.611-0.772-2.514-2.386-2.514c-1.812,0-2.891,1.006-2.891,2.812v7.664h-4.532V188.805z"/>
			<path fill="#FFFFFF" d="M239.931,197.739v-5.174h-2.114v-3.76h2.114v-7.461h4.504v7.461h3.659v3.76h-3.659v5.307
				c0,1.445,0.466,1.744,1.175,1.744c0.736,0,1.274-0.4,1.576-0.602l1.713,3.154c-0.705,0.57-1.912,1.311-3.998,1.311
				C242.014,203.479,239.931,202.036,239.931,197.739z"/>
			<path fill="#FFFFFF" d="M252.224,195.989c0-4.369,3.457-7.486,7.894-7.486c4.433,0,7.856,3.117,7.856,7.486
				c0,4.336-3.424,7.426-7.856,7.426C255.681,203.415,252.224,200.325,252.224,195.989z M263.341,195.989
				c0-2.146-1.209-3.592-3.224-3.592c-2.017,0-3.258,1.445-3.258,3.592c0,2.115,1.241,3.596,3.258,3.596
				C262.132,199.584,263.341,198.104,263.341,195.989z"/>
			<path fill="#FFFFFF" d="M282.418,180.272h7.017c7.021,0,12.021,4.666,12.021,11.416c0,6.754-4.969,11.426-12.021,11.426h-7.017
				V180.272z M289.2,198.981c5.072,0,7.388-3.029,7.388-7.293c0-4.262-2.315-7.283-7.388-7.283h-2.084v14.576H289.2z"/>
			<path fill="#FFFFFF" d="M306.062,183.567c0-1.65,1.34-2.822,2.89-2.822c1.545,0,2.849,1.172,2.849,2.822
				c0,1.674-1.304,2.852-2.849,2.852C307.401,186.418,306.062,185.241,306.062,183.567z M306.666,188.805h4.531v14.309h-4.531
				V188.805z"/>
			<path fill="#FFFFFF" d="M315.562,200.688l2.653-2.344c0.979,0.938,2.217,1.508,3.562,1.508c1.475,0,1.948-0.268,1.948-0.871
				c0-0.773-0.912-0.773-3.226-1.383c-1.952-0.502-4.129-1.576-4.129-4.564c0-3.221,2.48-4.531,5.538-4.531
				c2.352,0,4.03,0.768,5.21,1.979l-2.421,2.59c-0.674-0.576-1.681-1.08-2.758-1.08c-1.034,0-1.54,0.273-1.54,0.844
				c0,0.809,0.904,0.904,2.852,1.342c2.083,0.475,4.703,1.447,4.703,4.467c0,2.623-1.375,4.771-5.875,4.771
				C318.756,203.415,316.806,202.168,315.562,200.688z"/>
			<path fill="#FFFFFF" d="M331.923,195.924c0-4.332,3.355-7.422,7.821-7.422c2.858,0,4.566,1.035,6.013,2.85l-3.227,2.625
				c-0.534-0.875-1.644-1.514-2.786-1.514c-2.043,0-3.189,1.445-3.189,3.461c0,2.082,1.146,3.557,3.189,3.557
				c1.444,0,2.218-0.668,2.892-1.342l3.054,2.688c-1.41,1.582-3.087,2.588-5.945,2.588
				C335.278,203.415,331.923,200.325,331.923,195.924z"/>
			<path fill="#FFFFFF" d="M349.279,195.989c0-4.369,3.463-7.486,7.897-7.486c4.429,0,7.86,3.117,7.86,7.486
				c0,4.336-3.432,7.426-7.86,7.426C352.742,203.415,349.279,200.325,349.279,195.989z M360.403,195.989
				c0-2.146-1.211-3.592-3.227-3.592c-2.014,0-3.259,1.445-3.259,3.592c0,2.115,1.245,3.596,3.259,3.596
				C359.192,199.584,360.403,198.104,360.403,195.989z"/>
			<path fill="#FFFFFF" d="M367.458,188.805h5.004l2.014,4.266c0.674,1.443,1.176,3.793,1.176,3.793s0.473-2.35,1.105-3.793
				l1.952-4.266h4.602l-7.659,14.609h-0.436L367.458,188.805z"/>
			<path fill="#FFFFFF" d="M394.057,199.649c1.651,0,2.892-0.635,3.596-1.141l2.584,2.789c-1.369,1.207-3.118,2.117-6.106,2.117
				c-5.11,0-8.398-3.09-8.398-7.49c0-4.332,3.459-7.422,7.894-7.422c5.14,0,7.922,3.83,7.589,8.828h-10.845
				C390.801,198.813,392.014,199.649,394.057,199.649z M396.646,194.715c-0.199-1.578-1.21-2.518-2.988-2.518
				c-1.779,0-2.99,0.799-3.355,2.518H396.646z"/>
			<path fill="#FFFFFF" d="M405.987,188.805h4.533l-0.069,2.584c1.04-2.348,2.725-2.887,4.198-2.887c0.939,0,1.645,0.268,2.216,0.57
				l-1.446,4.131c-0.571-0.273-1.104-0.438-1.741-0.438c-2.051,0-3.157,0.943-3.157,3.996v6.352h-4.533V188.805z"/>
		</g>
		<g>
			<g>
				<path fill="#FFFFFF" d="M418.266,189.161l0.225-0.119c0.126,0.215,0.304,0.402,0.666,0.402c0.298,0,0.534-0.174,0.534-0.443
					c0-0.264-0.164-0.393-0.48-0.535l-0.205-0.1c-0.37-0.164-0.567-0.346-0.567-0.697c0-0.369,0.287-0.619,0.672-0.619
					c0.345,0,0.56,0.16,0.699,0.389l-0.223,0.135c-0.095-0.16-0.234-0.283-0.477-0.283c-0.253,0-0.404,0.148-0.404,0.369
					c0,0.227,0.124,0.328,0.404,0.463l0.207,0.092c0.425,0.189,0.644,0.396,0.644,0.787c0,0.428-0.333,0.684-0.792,0.684
					C418.672,189.684,418.404,189.43,418.266,189.161z"/>
				<path fill="#FFFFFF" d="M420.521,187.049h0.032l1.199,1.492l1.189-1.492h0.038v2.604h-0.267v-1.703
					c0-0.111,0.01-0.291,0.01-0.291s-0.096,0.164-0.179,0.266l-0.774,0.98h-0.047l-0.772-0.98c-0.083-0.102-0.186-0.266-0.186-0.266
					s0.022,0.18,0.022,0.291v1.703h-0.267V187.049z"/>
			</g>
		</g>
	</g>
	<g>
		<path fill="#FFFFFF" d="M174.288,14.854v2.267c-4.676,0.311-7.7,1.095-9.089,2.338c-1.388,1.247-2.084,4.112-2.084,8.587v38.898
			c0,6.369,0.876,11.347,2.616,14.911c3.249,6.496,9.403,9.74,18.47,9.74c9.943,0,16.614-3.329,20.014-9.979
			c1.901-3.718,2.854-9.465,2.854-17.22V32.738c0-6.618-0.79-10.761-2.372-12.444c-1.586-1.68-4.598-2.739-9.027-3.173v-2.267
			h28.152v2.267c-4.712,0.509-7.789,1.645-9.235,3.413c-1.45,1.759-2.172,5.822-2.172,12.204v31.658
			c0,8.393-1.28,14.939-3.859,19.654c-4.753,8.675-13.783,13.008-27.082,13.008c-13.152,0-22.101-4.277-26.848-12.829
			c-2.579-4.592-3.866-10.653-3.866-18.172V28.045c0-4.436-0.676-7.275-2.044-8.529c-1.368-1.249-4.348-2.046-8.936-2.396v-2.267
			H174.288"/>
		<path fill="#FFFFFF" d="M220.942,93.078c5.024-0.515,8.254-1.651,9.681-3.409c1.424-1.759,2.137-5.845,2.137-12.259V28.033
			c0-4.394-0.689-7.25-2.079-8.574c-1.388-1.327-4.537-2.104-9.44-2.338v-2.267h23.979l27.939,60.59l27.255-60.59h24.175v2.267
			c-4.514,0.311-7.424,1.133-8.74,2.455c-1.296,1.32-1.95,4.147-1.95,8.457v54.072c0,4.429,0.654,7.27,1.95,8.512
			c1.316,1.247,4.227,2.069,8.74,2.461v2.261h-34.032v-2.261c4.902-0.392,7.963-1.272,9.173-2.639
			c1.207-1.363,1.814-4.617,1.814-9.763V26.074l-31.155,69.265h-1.664l-30.619-66.412V77.41c0,6.654,0.974,10.974,2.913,13.004
			c1.261,1.305,4.096,2.195,8.495,2.664v2.261h-28.571V93.078"/>
		<path fill="#FFFFFF" d="M322.388,93.078c4.446-0.469,7.341-1.266,8.682-2.39c1.338-1.123,2.018-3.97,2.018-8.538V28.045
			c0-4.436-0.654-7.288-1.966-8.555c-1.295-1.263-4.212-2.06-8.733-2.37v-2.267h32.785c11.058,0,20.397,1.826,28.035,5.466
			c13.78,6.538,20.678,18.211,20.678,35.048c0,6.056-1.247,11.812-3.71,17.278c-2.481,5.469-6.205,10.08-11.201,13.843
			c-3.17,2.377-6.46,4.174-9.863,5.407c-6.213,2.293-13.854,3.442-22.921,3.442h-33.803V93.078 M346.891,89.873
			c0.978,0.635,2.979,0.952,6.035,0.952c9.504,0,17.327-1.882,23.463-5.644c9.416-5.787,14.128-15.676,14.128-29.674
			c0-12.477-3.88-21.869-11.635-28.174c-6.651-5.389-15.455-8.079-26.429-8.079c-2.736,0-4.585,0.295-5.562,0.885
			c-0.962,0.605-1.45,1.916-1.45,3.931v61.882C345.44,87.93,345.929,89.238,346.891,89.873z"/>
	</g>
</g>
</svg>
