<?xml version="1.0" encoding="utf-8"?>
<!-- Generator: Adobe Illustrator 16.0.4, SVG Export Plug-In . SVG Version: 6.00 Build 0)  -->
<!DOCTYPE svg PUBLIC "-//W3C//DTD SVG 1.1//EN" "http://www.w3.org/Graphics/SVG/1.1/DTD/svg11.dtd">
<svg version="1.1" id="Layer_1" xmlns="http://www.w3.org/2000/svg" xmlns:xlink="http://www.w3.org/1999/xlink" x="0px" y="0px"
	 width="88.879px" height="67.726px" viewBox="0 0 88.879 67.726" enable-background="new 0 0 88.879 67.726" xml:space="preserve">
<g>
	<g>
		<g>
			<path fill="#98002E" d="M4.388,60.661h1.913c1.913,0,3.277,1.271,3.277,3.111c0,1.842-1.354,3.114-3.277,3.114H4.388V60.661z
				 M6.237,65.761c1.383,0,2.014-0.824,2.014-1.988c0-1.161-0.631-1.985-2.014-1.985H5.669v3.974H6.237z"/>
			<path fill="#98002E" d="M10.736,62.987h1.235l-0.018,0.705c0.283-0.641,0.741-0.788,1.145-0.788c0.256,0,0.448,0.073,0.604,0.155
				l-0.394,1.127c-0.155-0.074-0.302-0.119-0.476-0.119c-0.559,0-0.861,0.256-0.861,1.089v1.73h-1.235V62.987z"/>
			<path fill="#98002E" d="M14.663,61.559c0-0.45,0.367-0.769,0.788-0.769s0.778,0.318,0.778,0.769c0,0.457-0.357,0.778-0.778,0.778
				S14.663,62.016,14.663,61.559z M14.828,62.987h1.236v3.899h-1.236V62.987z"/>
			<path fill="#98002E" d="M17.135,62.987H18.5l0.55,1.162c0.183,0.395,0.32,1.035,0.32,1.035s0.127-0.641,0.301-1.035l0.531-1.162
				h1.255L19.37,66.97H19.25L17.135,62.987z"/>
			<path fill="#98002E" d="M24.387,65.944c0.449,0,0.787-0.174,0.98-0.312l0.704,0.759c-0.376,0.33-0.851,0.578-1.666,0.578
				c-1.392,0-2.289-0.842-2.289-2.042c0-1.181,0.942-2.023,2.151-2.023c1.4,0,2.161,1.044,2.069,2.407H23.38
				C23.5,65.716,23.829,65.944,24.387,65.944z M25.092,64.599c-0.055-0.431-0.33-0.688-0.814-0.688
				c-0.486,0-0.815,0.219-0.916,0.688H25.092z"/>
			<path fill="#98002E" d="M27.638,62.987h1.235l-0.027,0.641c0.238-0.467,0.695-0.724,1.236-0.724c0.852,0,1.465,0.622,1.465,1.73
				v2.252h-1.236v-2.171c0-0.438-0.211-0.686-0.65-0.686c-0.494,0-0.787,0.275-0.787,0.769v2.088h-1.235V62.987z"/>
			<path fill="#98002E" d="M35.804,65.423v-1.412h-0.576v-1.023h0.576v-2.034h1.228v2.034h0.998v1.023h-0.998v1.448
				c0,0.394,0.127,0.476,0.32,0.476c0.201,0,0.348-0.109,0.43-0.164l0.468,0.859c-0.192,0.156-0.522,0.357-1.091,0.357
				C36.372,66.987,35.804,66.594,35.804,65.423z"/>
			<path fill="#98002E" d="M39.156,64.946c0-1.191,0.942-2.042,2.15-2.042c1.209,0,2.143,0.851,2.143,2.042
				c0,1.182-0.934,2.023-2.143,2.023C40.098,66.97,39.156,66.128,39.156,64.946z M42.186,64.946c0-0.586-0.329-0.98-0.88-0.98
				c-0.549,0-0.887,0.395-0.887,0.98c0,0.576,0.338,0.979,0.887,0.979C41.857,65.925,42.186,65.522,42.186,64.946z"/>
			<path fill="#98002E" d="M47.386,60.661h1.913c1.914,0,3.278,1.271,3.278,3.111c0,1.842-1.355,3.114-3.278,3.114h-1.913V60.661z
				 M49.236,65.761c1.383,0,2.014-0.824,2.014-1.988c0-1.161-0.631-1.985-2.014-1.985h-0.568v3.974H49.236z"/>
			<path fill="#98002E" d="M53.832,61.559c0-0.45,0.365-0.769,0.787-0.769s0.777,0.318,0.777,0.769c0,0.457-0.355,0.778-0.777,0.778
				S53.832,62.016,53.832,61.559z M53.996,62.987h1.236v3.899h-1.236V62.987z"/>
			<path fill="#98002E" d="M56.422,66.228l0.724-0.641c0.266,0.256,0.604,0.412,0.971,0.412c0.402,0,0.531-0.074,0.531-0.238
				c0-0.211-0.248-0.211-0.881-0.376c-0.531-0.138-1.125-0.431-1.125-1.245c0-0.879,0.677-1.235,1.511-1.235
				c0.641,0,1.099,0.21,1.42,0.54l-0.66,0.705c-0.184-0.156-0.458-0.294-0.751-0.294c-0.283,0-0.421,0.074-0.421,0.229
				c0,0.221,0.247,0.247,0.778,0.366c0.567,0.129,1.281,0.394,1.281,1.218c0,0.715-0.375,1.301-1.602,1.301
				C57.292,66.97,56.761,66.63,56.422,66.228z"/>
			<path fill="#98002E" d="M60.881,64.928c0-1.181,0.915-2.023,2.133-2.023c0.779,0,1.245,0.282,1.639,0.777l-0.879,0.715
				c-0.146-0.238-0.448-0.412-0.76-0.412c-0.558,0-0.87,0.394-0.87,0.943c0,0.567,0.312,0.97,0.87,0.97
				c0.394,0,0.604-0.182,0.788-0.365l0.832,0.732c-0.384,0.43-0.841,0.705-1.62,0.705C61.796,66.97,60.881,66.128,60.881,64.928z"/>
			<path fill="#98002E" d="M65.614,64.946c0-1.191,0.943-2.042,2.153-2.042c1.207,0,2.143,0.851,2.143,2.042
				c0,1.182-0.936,2.023-2.143,2.023C66.557,66.97,65.614,66.128,65.614,64.946z M68.645,64.946c0-0.586-0.329-0.98-0.878-0.98
				c-0.55,0-0.889,0.395-0.889,0.98c0,0.576,0.339,0.979,0.889,0.979C68.316,65.925,68.645,65.522,68.645,64.946z"/>
			<path fill="#98002E" d="M70.57,62.987h1.363l0.549,1.162c0.184,0.395,0.32,1.035,0.32,1.035s0.129-0.641,0.303-1.035l0.531-1.162
				h1.254l-2.088,3.982h-0.118L70.57,62.987z"/>
			<path fill="#98002E" d="M77.82,65.944c0.45,0,0.788-0.174,0.98-0.312l0.705,0.759c-0.375,0.33-0.852,0.578-1.667,0.578
				c-1.392,0-2.288-0.842-2.288-2.042c0-1.181,0.943-2.023,2.15-2.023c1.402,0,2.161,1.044,2.07,2.407h-2.957
				C76.931,65.716,77.262,65.944,77.82,65.944z M78.525,64.599c-0.055-0.431-0.329-0.688-0.814-0.688
				c-0.484,0-0.814,0.219-0.914,0.688H78.525z"/>
			<path fill="#98002E" d="M81.072,62.987h1.236l-0.02,0.705c0.283-0.641,0.742-0.788,1.145-0.788c0.256,0,0.448,0.073,0.604,0.155
				l-0.394,1.127c-0.155-0.074-0.302-0.119-0.476-0.119c-0.559,0-0.859,0.256-0.859,1.089v1.73h-1.236V62.987z"/>
		</g>
	</g>
	<g>
		<path fill="#98002E" d="M84.648,63.813l0.173-0.092c0.092,0.164,0.227,0.305,0.502,0.305c0.228,0,0.405-0.127,0.405-0.334
			c0-0.197-0.123-0.298-0.367-0.407l-0.156-0.072c-0.277-0.126-0.43-0.261-0.43-0.533c0-0.282,0.221-0.468,0.514-0.468
			c0.262,0,0.424,0.121,0.527,0.293l-0.166,0.104c-0.074-0.121-0.178-0.213-0.361-0.213c-0.192,0-0.311,0.111-0.311,0.277
			c0,0.173,0.092,0.251,0.311,0.352l0.154,0.072c0.324,0.143,0.492,0.304,0.492,0.596c0,0.322-0.256,0.518-0.605,0.518
			C84.956,64.21,84.751,64.02,84.648,63.813z"/>
		<path fill="#98002E" d="M86.356,62.212h0.028l0.907,1.134l0.901-1.134h0.031v1.975h-0.2v-1.289c0-0.089,0.009-0.225,0.009-0.225
			s-0.076,0.127-0.139,0.205l-0.59,0.746h-0.035l-0.583-0.746c-0.063-0.078-0.141-0.205-0.141-0.205s0.012,0.136,0.012,0.225v1.289
			h-0.201V62.212z"/>
	</g>
</g>
<g>
	<path fill="#98002E" d="M69.318,31.674l0.056,1.847h-0.242c-0.225-1.184-0.514-1.38-2.071-1.38v5.522
		c0,0.647,0.33,0.933,0.933,0.933v0.261h-2.892v-0.261c0.604,0,0.934-0.286,0.934-0.933V32.14c-1.558,0-1.848,0.196-2.071,1.38
		h-0.242l0.056-1.847H69.318z"/>
	<path fill="#98002E" d="M74.858,31.936v-0.262h2.201v0.262c-0.317,0-0.815,0.345-1.025,0.69c-0.234,0.383-1.772,2.948-1.772,2.948
		v2.089c0,0.696,0.255,0.933,1.007,0.933v0.261h-3.041v-0.261c0.753,0,1.008-0.237,1.008-0.933v-1.977c0,0-1.697-2.706-1.902-3.041
		c-0.206-0.336-0.616-0.709-1.008-0.709v-0.262h2.836v0.262c-0.393,0-0.672,0.177-0.672,0.382c0,0.131,0.065,0.289,0.112,0.373
		c0.046,0.084,1.437,2.37,1.437,2.37s1.38-2.397,1.417-2.463c0.037-0.065,0.057-0.149,0.057-0.232
		C75.511,32.168,75.399,31.936,74.858,31.936z"/>
	<path fill="#98002E" d="M57.863,31.516l0.206,2.369h-0.262c-0.354-1.166-0.951-1.883-1.81-1.883c-0.616,0-0.97,0.417-0.97,0.969
		c0,0.634,0.466,1.007,1.044,1.399c0.579,0.392,0.971,0.653,1.157,0.784c0.534,0.375,1.045,1.043,1.045,1.81
		c0,1.169-0.878,2.033-2.033,2.033c-0.71,0-1.157-0.354-1.512-0.354c-0.195,0-0.289,0.196-0.336,0.354h-0.242l-0.299-2.388h0.262
		c0.438,1.222,1.081,1.94,1.978,1.94c0.671,0,1.175-0.46,1.175-1.212c0-0.682-0.36-1.007-0.784-1.306
		c-0.475-0.336-1.062-0.747-1.417-0.989c-0.554-0.378-0.896-0.89-0.896-1.716c0-0.989,0.653-1.81,1.772-1.81
		c0.485,0,1.025,0.317,1.324,0.317c0.224,0,0.316-0.149,0.336-0.317H57.863z"/>
	<path fill="#98002E" d="M61.818,32.868c0-0.646,0.33-0.932,0.933-0.932v-0.262h-2.892v0.262c0.604,0,0.934,0.286,0.934,0.932v4.794
		c0,0.647-0.33,0.933-0.934,0.933v0.261h2.892v-0.261c-0.603,0-0.933-0.286-0.933-0.933V32.868z"/>
	<path fill="#98002E" d="M45.364,36.981c-0.316,0.746-0.728,1.399-1.865,1.399c-0.242,0-0.746,0-1.138,0
		c-0.417,0-0.597-0.144-0.597-0.485c0-0.133,0-1.322,0-2.556c0.28,0,1.13,0,1.548,0c0.598,0,0.914,0.336,1.008,0.97h0.242v-2.481
		H44.3c-0.037,0.69-0.391,1.025-0.933,1.025c-0.458,0-1.346,0-1.604,0c0-1.183,0-2.286,0-2.406c0-0.261,0.168-0.317,0.392-0.317
		s0.728,0,1.38,0c0.858,0,1.157,0.354,1.344,1.157h0.242l-0.056-1.623h-5.168v0.261c0.604,0,0.877,0.286,0.877,0.933v4.794
		c0,0.647-0.273,0.933-0.877,0.933v0.262h5.299l0.466-1.866H45.364z"/>
	<path fill="#98002E" d="M52.192,38.269c-0.165-0.199-1.759-2.384-2.112-2.87c1.285-0.274,1.739-0.927,1.739-1.869
		c0-1.12-0.84-1.865-2.369-1.865c-0.187,0-2.873,0-2.873,0v0.261c0.604,0,0.877,0.286,0.877,0.933v4.794
		c0,0.647-0.273,0.933-0.877,0.933v0.262h2.78v-0.262c-0.604,0-0.878-0.286-0.878-0.933v-2.109c0.192,0,0.372-0.007,0.545-0.016
		l2.328,3.319h1.567v-0.224C52.659,38.624,52.378,38.492,52.192,38.269z M48.479,35.116V32.69c0-0.497,0.101-0.615,0.653-0.615
		c1.213,0,1.66,0.597,1.66,1.492c0,1.101-0.833,1.549-2.07,1.549C48.628,35.116,48.549,35.116,48.479,35.116z"/>
	<path fill="#98002E" d="M30.141,32.859c0-0.647,0.33-0.933,0.934-0.933v-0.261h-2.892v0.261c0.603,0,0.933,0.286,0.933,0.933v4.794
		c0,0.647-0.33,0.933-0.933,0.933v0.262h2.892v-0.262c-0.604,0-0.934-0.286-0.934-0.933V32.859z"/>
	<path fill="#98002E" d="M34.88,31.926v-0.261H32.25v0.261c0.317,0,0.653,0.206,0.877,0.747c0.224,0.541,2.593,6.287,2.593,6.287
		h0.168c0,0,2.07-5.783,2.258-6.287c0.187-0.504,0.503-0.747,0.802-0.747v-0.261h-2.033v0.261c0.447,0,0.69,0.243,0.69,0.56
		c0,0.093-0.026,0.195-0.057,0.28C37.507,32.876,36.037,37,36.037,37s-1.736-4.168-1.789-4.294
		c-0.039-0.095-0.058-0.219-0.058-0.324C34.19,32.098,34.429,31.926,34.88,31.926z"/>
	<path fill="#98002E" d="M10.778,29.594c0.783,0,1.193,0.392,1.193,1.511s0,2.593,0,4.44c0,2.245,1.231,3.433,3.377,3.433
		c1.847,0,3.265-1.119,3.265-3.283c0-1.997,0-4.104,0-4.851s0.224-1.25,1.119-1.25v-0.261h-2.836v0.261
		c0.803,0,1.139,0.354,1.157,1.324s0.074,3.507,0.074,5.019c0,1.511-1.082,2.462-2.556,2.462c-1.417,0-2.537-0.839-2.537-2.611
		c0-1.772,0-4.179,0-4.962c0-0.733,0.28-1.231,1.12-1.231v-0.261h-3.377V29.594z"/>
	<path fill="#98002E" d="M24.396,31.665v0.261c0.56,0,0.896,0.429,0.896,1.083c0,0.443,0,2.5,0,3.778l-3.731-5.121h-1.623v0.261
		c0.317,0,0.579,0.149,0.709,0.317c0.015,0.019,0.089,0.119,0.205,0.275c0,0.783,0,4.175,0,4.818c0,0.821-0.279,1.249-0.933,1.249
		v0.262h2.295v-0.262c-0.561,0-0.896-0.373-0.896-1.025c0-0.529,0-3.353,0-4.411c1.356,1.835,4.291,5.81,4.291,5.81h0.149
		c0,0,0-5.056,0-5.783c0-0.914,0.372-1.25,0.932-1.25v-0.261H24.396z"/>
	<path fill="#98002E" d="M77.673,46.033l0.056,1.848h-0.242c-0.225-1.185-0.513-1.381-2.071-1.381v5.522
		c0,0.646,0.33,0.933,0.934,0.933v0.261h-2.892v-0.261c0.603,0,0.933-0.286,0.933-0.933V46.5c-1.558,0-1.847,0.196-2.07,1.381
		h-0.243l0.057-1.848H77.673z"/>
	<path fill="#98002E" d="M68.084,45.896c-1.771,0-3.207,1.456-3.207,3.72c0,2.265,1.436,3.72,3.207,3.72s3.207-1.455,3.207-3.72
		C71.292,47.352,69.856,45.896,68.084,45.896z M68.084,52.913c-1.344,0-2.114-1.291-2.114-3.298c0-2.006,0.771-3.297,2.114-3.297
		s2.114,1.291,2.114,3.297C70.199,51.622,69.428,52.913,68.084,52.913z"/>
	<path fill="#98002E" d="M83.278,52.331c-0.13-0.337-2.536-6.4-2.536-6.4h-0.243c0,0-2.127,5.561-2.388,6.213
		c-0.262,0.653-0.578,0.812-0.829,0.812v0.261h1.959v-0.261c-0.289,0-0.612-0.2-0.612-0.513c0-0.094,0.01-0.205,0.033-0.271
		c0.02-0.056,0.22-0.6,0.478-1.296h2.487c0.254,0.69,0.447,1.22,0.458,1.25c0.033,0.093,0.075,0.224,0.075,0.317
		c0,0.279-0.225,0.513-0.644,0.513v0.261h2.519v-0.261C83.728,52.955,83.41,52.665,83.278,52.331z M79.326,50.371
		c0.485-1.317,1.061-2.873,1.061-2.873s0.575,1.563,1.056,2.873H79.326z"/>
	<path fill="#98002E" d="M57.731,51.351c-0.317,0.746-0.728,1.398-1.865,1.398c-0.242,0-0.746,0-1.139,0
		c-0.416,0-0.597-0.143-0.597-0.484c0-0.134,0-1.322,0-2.557c0.28,0,1.131,0,1.549,0c0.597,0,0.914,0.336,1.007,0.971h0.242v-2.48
		h-0.261c-0.037,0.689-0.392,1.025-0.933,1.025c-0.459,0-1.346,0-1.604,0c0-1.184,0-2.286,0-2.406c0-0.261,0.168-0.317,0.393-0.317
		c0.224,0,0.727,0,1.38,0c0.858,0,1.157,0.354,1.344,1.156h0.242l-0.056-1.623h-5.168v0.262c0.604,0,0.877,0.286,0.877,0.933v4.795
		c0,0.646-0.273,0.933-0.877,0.933v0.261h5.298l0.466-1.865H57.731z"/>
	<path fill="#98002E" d="M63.197,45.885l0.206,2.369h-0.262c-0.354-1.166-0.951-1.885-1.81-1.885c-0.616,0-0.97,0.418-0.97,0.971
		c0,0.635,0.466,1.007,1.044,1.399c0.578,0.391,0.971,0.652,1.157,0.783c0.534,0.374,1.044,1.043,1.044,1.809
		c0,1.17-0.877,2.034-2.032,2.034c-0.71,0-1.158-0.354-1.512-0.354c-0.196,0-0.29,0.195-0.336,0.354h-0.242l-0.299-2.388h0.262
		c0.438,1.222,1.081,1.939,1.978,1.939c0.671,0,1.175-0.459,1.175-1.212c0-0.681-0.359-1.007-0.784-1.306
		c-0.475-0.336-1.063-0.746-1.417-0.988c-0.554-0.379-0.896-0.891-0.896-1.718c0-0.988,0.653-1.809,1.773-1.809
		c0.485,0,1.025,0.317,1.324,0.317c0.224,0,0.316-0.149,0.336-0.317H63.197z"/>
	<path fill="#98002E" d="M48.925,46.033v0.262c0.56,0,0.896,0.43,0.896,1.082c0,0.443,0,2.501,0,3.778l-3.73-5.122h-1.623v0.262
		c0.316,0,0.578,0.15,0.709,0.317c0.014,0.019,0.089,0.118,0.205,0.275c0,0.783,0,4.174,0,4.817c0,0.821-0.279,1.25-0.933,1.25
		v0.261h2.295v-0.261c-0.561,0-0.896-0.373-0.896-1.026c0-0.527,0-3.353,0-4.411c1.356,1.835,4.29,5.811,4.29,5.811h0.149
		c0,0,0-5.056,0-5.783c0-0.914,0.373-1.25,0.933-1.25v-0.262H48.925z"/>
	<path fill="#98002E" d="M40.959,46.033v0.262c0.56,0,0.896,0.43,0.896,1.082c0,0.443,0,2.501,0,3.778l-3.73-5.122h-1.623v0.262
		c0.316,0,0.578,0.15,0.709,0.317c0.015,0.019,0.089,0.118,0.205,0.275c0,0.783,0,4.174,0,4.817c0,0.821-0.279,1.25-0.933,1.25
		v0.261h2.295v-0.261c-0.561,0-0.896-0.373-0.896-1.026c0-0.527,0-3.353,0-4.411c1.356,1.835,4.29,5.811,4.29,5.811h0.149
		c0,0,0-5.056,0-5.783c0-0.914,0.373-1.25,0.933-1.25v-0.262H40.959z"/>
	<path fill="#98002E" d="M31.334,43.963v-0.261h-2.221l-2.892,7.76l-2.91-7.76h-2.257v0.261c0.951,0,1.213,0.522,1.213,1.455
		c0,0.934,0,5.653,0,5.839c0,1.35-0.38,1.698-1.231,1.698v0.261h2.929v-0.261c-0.821,0-1.213-0.354-1.213-1.698
		c0-1.343,0-6.101,0-6.101l3.022,8.079h0.28l3.078-8.228c0,0,0,6.007,0,6.249c0,1.35-0.306,1.698-1.157,1.698v0.261h3.358v-0.261
		c-0.821,0-1.139-0.354-1.139-1.698c0-0.521,0-5.186,0-5.969C30.196,44.205,30.774,43.963,31.334,43.963z"/>
	<path fill="#98002E" d="M34.076,47.228c0-0.646,0.33-0.933,0.934-0.933v-0.262h-2.892v0.262c0.603,0,0.933,0.286,0.933,0.933v4.795
		c0,0.646-0.33,0.933-0.933,0.933v0.261h2.892v-0.261c-0.604,0-0.934-0.286-0.934-0.933V47.228z"/>
	<path fill="#98002E" d="M7.595,45.905c-1.771,0-3.207,1.456-3.207,3.72s1.436,3.72,3.207,3.72s3.207-1.456,3.207-3.72
		S9.367,45.905,7.595,45.905z M7.595,52.923c-1.344,0-2.114-1.291-2.114-3.298s0.771-3.297,2.114-3.297s2.113,1.29,2.113,3.297
		S8.939,52.923,7.595,52.923z"/>
	<path fill="#98002E" d="M17.026,46.033h-5.225v0.262c0.604,0,0.878,0.286,0.878,0.933v4.795c0,0.646-0.273,0.933-0.878,0.933v0.261
		h2.78v-0.261c-0.578,0-0.914-0.28-0.914-0.933c0-0.129,0-1.186,0-2.314c0.271,0,1.078,0,1.493,0c0.596,0,0.914,0.336,1.007,0.971
		h0.242v-2.48h-0.261c-0.037,0.689-0.393,1.025-0.934,1.025c-0.457,0-1.297,0-1.548,0c0-1.167,0-2.282,0-2.406
		c0-0.261,0.168-0.317,0.393-0.317c0.223,0,0.782,0,1.436,0c0.858,0,1.157,0.354,1.344,1.156h0.242L17.026,46.033z"/>
</g>
<g>
	<g>
		<path fill="#98002E" d="M62.665,18.954c0.103,0.041,0.19,0.098,0.266,0.171c0.074,0.073,0.132,0.154,0.174,0.242
			c0.057,0.114,0.084,0.237,0.084,0.367c0,0.147-0.036,0.288-0.11,0.42c-0.075,0.133-0.178,0.237-0.309,0.311
			c-0.133,0.074-0.271,0.111-0.415,0.111c-0.144,0-0.281-0.037-0.414-0.111c-0.131-0.074-0.233-0.178-0.309-0.311
			c-0.074-0.132-0.11-0.273-0.11-0.42c0-0.125,0.022-0.239,0.071-0.342c0.048-0.103,0.108-0.19,0.18-0.26
			c0.073-0.07,0.152-0.125,0.238-0.163c0.112-0.05,0.228-0.075,0.344-0.075C62.459,18.893,62.563,18.913,62.665,18.954z
			 M63.254,19.323c-0.045-0.101-0.108-0.194-0.19-0.279c-0.084-0.086-0.187-0.157-0.309-0.213c-0.12-0.057-0.256-0.085-0.401-0.085
			c-0.15,0-0.294,0.033-0.429,0.098c-0.099,0.047-0.189,0.112-0.274,0.194c-0.083,0.082-0.15,0.184-0.204,0.305
			c-0.053,0.122-0.08,0.252-0.08,0.391c0,0.173,0.043,0.337,0.131,0.494c0.088,0.156,0.209,0.277,0.365,0.365
			c0.155,0.087,0.319,0.131,0.491,0.131c0.152,0,0.296-0.033,0.433-0.099c0.104-0.051,0.198-0.121,0.284-0.208
			s0.152-0.192,0.201-0.313c0.046-0.121,0.07-0.244,0.07-0.369C63.342,19.593,63.314,19.456,63.254,19.323z M62.322,19.875
			c0.062,0,0.109,0.008,0.143,0.025s0.056,0.041,0.069,0.069c0.015,0.03,0.023,0.077,0.027,0.143
			c0.005,0.093,0.012,0.148,0.02,0.166h0.231c-0.008-0.031-0.015-0.079-0.016-0.145c-0.002-0.065-0.006-0.112-0.012-0.14
			c-0.009-0.043-0.023-0.08-0.044-0.109s-0.045-0.053-0.076-0.069c-0.029-0.017-0.07-0.03-0.12-0.041
			c0.057-0.007,0.098-0.016,0.12-0.028c0.045-0.022,0.08-0.054,0.107-0.096c0.026-0.042,0.039-0.091,0.039-0.146
			c0-0.056-0.013-0.106-0.037-0.148c-0.025-0.042-0.058-0.076-0.097-0.102c-0.039-0.026-0.09-0.045-0.151-0.056
			c-0.045-0.008-0.109-0.012-0.195-0.012h-0.392v1.092h0.243v-0.403H62.322z M62.45,19.37c0.038,0.011,0.066,0.03,0.088,0.057
			c0.021,0.027,0.031,0.059,0.031,0.096c0,0.035-0.01,0.066-0.027,0.094c-0.019,0.028-0.046,0.05-0.082,0.064
			c-0.037,0.014-0.074,0.021-0.115,0.021h-0.162v-0.348h0.162C62.376,19.354,62.412,19.359,62.45,19.37z"/>
	</g>
	<polygon fill="#98002E" points="58.602,15.729 52.835,6.143 54.423,6.143 54.423,1.148 44.826,1.148 44.826,6.143 46.414,6.143 
		44.21,9.805 42.007,6.143 43.596,6.143 43.596,1.148 33.998,1.148 33.998,6.143 35.585,6.143 29.82,15.729 27.762,15.729 
		27.762,20.723 37.551,20.723 37.551,15.729 35.793,15.729 38.797,10.734 39.961,12.671 38.845,12.671 38.845,17.666 49.577,17.666 
		49.577,12.671 48.459,12.671 49.625,10.734 52.628,15.729 50.871,15.729 50.871,20.723 60.659,20.723 60.659,15.729 	"/>
</g>
</svg>
